<?xml version="1.0" encoding="UTF-8" standalone="no"?>
<!DOCTYPE svg PUBLIC "-//W3C//DTD SVG 1.1//EN" "http://www.w3.org/Graphics/SVG/1.1/DTD/svg11.dtd">
<svg version="1.1" xmlns="http://www.w3.org/2000/svg" xmlns:xlink="http://www.w3.org/1999/xlink" preserveAspectRatio="xMidYMid meet" viewBox="0 0 500.031 500.031"><defs><path d="M250.02 63.54L250.02 63.54L65.87 129.55L93.96 374.29L250.02 461.17L250.02 461.17L250.02 461.17L406.07 374.29L434.16 129.55L250.02 63.54L250.02 63.54Z" id="a5P4Qo4TY"></path><path d="M250.02 107.68L250.02 107.48L250.02 308.88L250.02 308.88L250.02 461.17L250.02 461.17L407.07 374.29L435.33 129.55L250.02 63.54L250.02 63.54L250.02 107.68Z" id="ivg6x7Qye"></path><path d="M373.74 357.01L219.35 311.97L232.52 278.78L377.02 323.37L373.74 357.01Z" id="b3d1Ihcz3K"></path><path d="M288.44 284.02L250.2 191.26L178.59 363.94L136.05 363.94L250.01 107.95L333.48 295.42L288.44 284.02Z" id="h2DYxneU4"></path></defs><g><g><g><use xlink:href="#a5P4Qo4TY" opacity="1" fill="#dd0031" fill-opacity="1"></use><g><use xlink:href="#a5P4Qo4TY" opacity="1" fill-opacity="0" stroke="#000000" stroke-width="1" stroke-opacity="0"></use></g></g><g><use xlink:href="#ivg6x7Qye" opacity="1" fill="#c3002f" fill-opacity="1"></use><g><use xlink:href="#ivg6x7Qye" opacity="1" fill-opacity="0" stroke="#000000" stroke-width="1" stroke-opacity="0"></use></g></g><g><use xlink:href="#b3d1Ihcz3K" opacity="1" fill="#ffffff" fill-opacity="1"></use></g><g><use xlink:href="#h2DYxneU4" opacity="1" fill="#ffffff" fill-opacity="1"></use></g></g></g></svg>
